<svg id="Box" xmlns="http://www.w3.org/2000/svg" viewBox="0 0 598 150.6"><defs><style>.cls-1,.cls-2,.cls-3{stroke:#000;stroke-miterlimit:10;}.cls-1,.cls-2{stroke-width:4px;}.cls-2{fill:#f7bd02;}.cls-4{font-size:95px;font-family:AsapCondensed-Medium, Asap Condensed;font-weight:500;}.cls-5{letter-spacing:-0.02em;}</style></defs><polygon class="cls-1" points="66 148.3 130 112.3 130 39.3 66 2.3 2 38.3 2 112.3 66 148.3"/><polygon class="cls-2" points="69 140.3 69 77.3 124 45.3 124 109.3 69 140.3"/><polygon class="cls-2" points="63 140.3 8 109.3 8 45.3 63 77.3 63 140.3"/><polygon class="cls-2" points="66 72.3 121 40.3 66 8.3 11 40.3 66 72.3"/><polygon class="cls-3" points="42.5 77.8 28.5 69.8 28.5 59.8 42.5 67.8 42.5 76.55 42.5 77.8"/><polygon class="cls-3" points="46.5 58.3 33.5 51.3 84.5 21.3 97.5 29.3 46.5 58.3"/><polygon class="cls-3" points="42.5 86.3 28.5 77.3 28.5 69.36 42.5 77.37 42.5 86.3"/><text class="cls-4" transform="translate(181.44 111.34)">Mana<tspan class="cls-5" x="202.63" y="0">g</tspan><tspan x="245.48" y="0">e.Me</tspan></text></svg>