<svg id="Refund" xmlns="http://www.w3.org/2000/svg" viewBox="0 0 154.28 171.23"><defs><style>.cls-1,.cls-2,.cls-3,.cls-4,.cls-5{fill:none;stroke:#000;stroke-miterlimit:10;}.cls-1{stroke-width:5.18px;}.cls-2{stroke-width:4.96px;}.cls-3{stroke-width:4.37px;}.cls-4{stroke-width:5px;}.cls-5{stroke-width:4px;}</style></defs><g id="Cash"><rect class="cls-1" x="2.59" y="2.59" width="149.1" height="83.81"/><ellipse class="cls-2" cx="76.19" cy="44.9" rx="18.5" ry="21.5"/><circle class="cls-3" cx="31.19" cy="46.9" r="7.5"/><circle class="cls-3" cx="122.69" cy="47.4" r="7.5"/></g><g id="Hand"><path class="cls-4" d="M2.69,150.4v-38a205.32,205.32,0,0,1,25-3c9.92-.58,14.88-.84,20,0,17.55,2.88,18.83,12,33,12,4.25,0,8.91-.86,14,2a19.42,19.42,0,0,1,7,7,177,177,0,0,1,17-5c14.09-3.38,25.85-6.21,30-1,1,1.3,2.17,3.82,1,9l-8,10a116.6,116.6,0,0,1-31,18c-12.56,4.88-22.21,8.46-34,7-21.62-2.68-33.51-20.51-49-19-1.28.12-6.56.77-14,1C8.85,150.55,5,150.47,2.69,150.4Z"/><path class="cls-4" d="M56.69,137.4a43,43,0,0,0,24,8,20.33,20.33,0,0,0,12-2,20.09,20.09,0,0,0,7-6l1.83-6.69"/><line class="cls-5" x1="11.19" y1="119.4" x2="20.19" y2="119.4"/><line class="cls-5" x1="11.19" y1="130.4" x2="20.19" y2="130.4"/><line class="cls-5" x1="11.19" y1="141.4" x2="20.19" y2="141.4"/></g></svg>